<svg width="20" height="26" viewBox="0 0 20 26" fill="none" xmlns="http://www.w3.org/2000/svg">
<path fill-rule="evenodd" clip-rule="evenodd" d="M12.9032 0.333333C12.9032 0.149238 12.7588 0 12.5806 0H3.54839C1.58867 0 0 1.64162 0 3.66667V22.3333C0 24.3584 1.58867 26 3.54839 26H16.4516C18.4113 26 20 24.3584 20 22.3333V9.19608C20 9.01198 19.8556 8.86275 19.6774 8.86275H13.871C13.3365 8.86275 12.9032 8.41503 12.9032 7.86275V0.333333ZM12.6213 14.5525C13.0386 14.2075 13.6476 14.2774 13.9815 14.7086C14.3154 15.1399 14.2477 15.7692 13.8304 16.1142L10.6124 18.7744C10.4463 18.9148 10.2343 18.9992 10.0032 19L10.0001 19L9.99191 19C9.76475 18.998 9.55625 18.9152 9.39205 18.778L6.16968 16.1142C5.75234 15.7692 5.68467 15.1399 6.01855 14.7086C6.35243 14.2774 6.96142 14.2075 7.37877 14.5525L9.03233 15.9194V11.3333C9.03233 10.781 9.4656 10.3333 10.0001 10.3333C10.5345 10.3333 10.9678 10.781 10.9678 11.3333V15.9193L12.6213 14.5525Z" fill="black"/>
<path d="M14.8387 0.765514C14.8387 0.51952 15.0873 0.363327 15.2725 0.517848C15.4285 0.647999 15.5688 0.800477 15.6884 0.972732L19.5764 6.56993C19.6649 6.69736 19.569 6.86275 19.4172 6.86275H15.1613C14.9831 6.86275 14.8387 6.71351 14.8387 6.52941V0.765514Z" fill="black"/>
</svg>
