<svg width="16" height="16" viewBox="0 0 16 16" fill="none" xmlns="http://www.w3.org/2000/svg">
<path d="M1.81333 0C0.811857 0 0 0.79077 0 1.76623C0 2.7417 0.811857 3.53247 1.81333 3.53247C2.81481 3.53247 3.62667 2.7417 3.62667 1.76623C3.62667 0.79077 2.81481 0 1.81333 0Z" fill="white"/>
<path d="M0.106667 4.98701C0.0477563 4.98701 0 5.03353 0 5.09091V15.8961C0 15.9535 0.0477563 16 0.106667 16H3.52C3.57891 16 3.62667 15.9535 3.62667 15.8961V5.09091C3.62667 5.03353 3.57891 4.98701 3.52 4.98701H0.106667Z" fill="white"/>
<path d="M5.65333 4.98701C5.59442 4.98701 5.54667 5.03353 5.54667 5.09091V15.8961C5.54667 15.9535 5.59442 16 5.65333 16H9.06667C9.12558 16 9.17333 15.9535 9.17333 15.8961V10.0779C9.17333 9.6646 9.3419 9.2682 9.64196 8.97594C9.94202 8.68367 10.349 8.51948 10.7733 8.51948C11.1977 8.51948 11.6046 8.68367 11.9047 8.97594C12.2048 9.2682 12.3733 9.6646 12.3733 10.0779V15.8961C12.3733 15.9535 12.4211 16 12.48 16H15.8933C15.9522 16 16 15.9535 16 15.8961V8.73164C16 6.7146 14.1989 5.13662 12.1385 5.31906C11.5031 5.37533 10.8748 5.52919 10.2882 5.77408L9.17333 6.23947V5.09091C9.17333 5.03353 9.12558 4.98701 9.06667 4.98701H5.65333Z" fill="white"/>
</svg>
