<svg width="14" height="14" viewBox="0 0 14 14" fill="none" xmlns="http://www.w3.org/2000/svg">
<path d="M10.2733 7.00004C10.2733 5.71277 9.53144 4.60732 8.45508 4.06914V5.67641L10.2369 7.45823C10.2587 7.31277 10.2733 7.16004 10.2733 7.00004ZM12.0914 7.00004C12.0914 7.68368 11.946 8.32368 11.6987 8.92004L12.7969 10.0182C13.2769 9.11641 13.546 8.09095 13.546 7.00004C13.546 3.88732 11.3714 1.28368 8.45508 0.621863V2.12004C10.5569 2.7455 12.0914 4.69459 12.0914 7.00004ZM1.37871 0.45459L0.455078 1.37823L3.89508 4.81823H0.455078V9.18186H3.36417L7.00053 12.8182V7.92368L10.0914 11.0146C9.60417 11.3928 9.05871 11.691 8.45508 11.8728V13.371C9.45871 13.1455 10.3678 12.68 11.1387 12.0546L12.6224 13.5455L13.546 12.6219L7.00053 6.07641L1.37871 0.45459ZM7.00053 1.18186L5.48053 2.70186L7.00053 4.22186V1.18186Z" fill="white"/>
</svg>
