<svg width="16" height="13" viewBox="0 0 16 13" fill="none" xmlns="http://www.w3.org/2000/svg">
<path d="M15.9845 1.77837C16.0321 1.71388 15.9618 1.63061 15.8858 1.6593C15.3455 1.86317 14.7808 2.00072 14.2047 2.06851C14.8461 1.69552 15.341 1.12775 15.6155 0.455551C15.6434 0.387075 15.5666 0.325924 15.5004 0.361546C14.9042 0.682001 14.2613 0.912754 13.5935 1.04565C13.5656 1.05121 13.5367 1.04195 13.5171 1.02179C13.0159 0.507039 12.3562 0.164309 11.6371 0.0458732C10.9028 -0.0750503 10.148 0.0446811 9.49118 0.386289C8.83433 0.727898 8.31254 1.27206 8.00765 1.93343C7.71775 2.56227 7.63953 3.26326 7.78251 3.93646C7.79361 3.9887 7.7516 4.03801 7.69691 4.03471C6.39754 3.95615 5.12797 3.61973 3.96644 3.04572C2.80786 2.47316 1.78191 1.67664 0.951061 0.705282C0.914187 0.662172 0.8443 0.667751 0.817434 0.717378C0.558904 1.19491 0.423544 1.72717 0.423912 2.26812C0.422862 2.80659 0.558617 3.33696 0.819089 3.81201C1.07956 4.28705 1.45667 4.69203 1.91683 4.99089C1.42882 4.97797 0.950329 4.86053 0.515167 4.64761C0.459087 4.62017 0.391817 4.65924 0.394734 4.72027C0.428668 5.43029 0.696453 6.14311 1.15997 6.69C1.65322 7.27198 2.33785 7.67026 3.09804 7.81746C2.80541 7.90415 2.50159 7.94985 2.19573 7.9532C2.02926 7.95131 1.86312 7.93935 1.69825 7.91741C1.63713 7.90927 1.58722 7.96579 1.60861 8.02212C1.83535 8.61896 2.23592 9.13976 2.76261 9.51992C3.32569 9.92635 4.00493 10.1518 4.7058 10.1649C3.5223 11.0714 2.06111 11.5661 0.555158 11.5702C0.400416 11.5707 0.245743 11.5659 0.0914349 11.5556C0.00447805 11.5499 -0.0355149 11.6626 0.0394391 11.7059C1.50674 12.5535 3.18384 13.0015 4.89447 12.9995C6.15746 13.0123 7.4104 12.7799 8.58011 12.3161C9.74982 11.8522 10.8128 11.1661 11.7071 10.2979C12.6014 9.42965 13.3089 8.39666 13.7885 7.25926C14.268 6.12185 14.5099 4.90284 14.5 3.67342V3.29029C14.5 3.26509 14.5123 3.24138 14.5329 3.22619C15.0893 2.81726 15.5786 2.32905 15.9845 1.77837Z" fill="white"/>
</svg>
