<svg width="120" height="48" viewBox="0 0 120 48" fill="none" xmlns="http://www.w3.org/2000/svg">
<path d="M92.4918 0H88.001V34.9786H92.4918V0Z" fill="white"/>
<path d="M58.1142 12.0347V36.009C58.1142 36.0882 58.1142 36.1806 58.1142 36.2597C57.9822 42.2236 53.1083 47.0001 47.1118 47.0001C42.3172 47.0001 38.2359 43.9389 36.7302 39.6507L40.8115 37.6716C41.5512 40.4556 44.0871 42.5139 47.1118 42.5139C50.7176 42.5139 53.6235 39.5979 53.6235 36.009V34.1222C53.5442 34.175 53.4782 34.2278 53.3989 34.2806C51.6158 35.5208 49.4497 36.2465 47.1118 36.2465C44.774 36.2465 42.6078 35.5208 40.8247 34.2806C39.4511 33.3306 38.3151 32.0903 37.5094 30.6257C36.6113 29.0292 36.1094 27.2083 36.1094 25.2555V12.0347H40.6002V25.2687C40.6002 25.8625 40.6794 26.4299 40.8247 26.984C41.2342 28.4882 42.1719 29.7812 43.4399 30.6389C44.4834 31.3514 45.7514 31.7736 47.1118 31.7736C48.4723 31.7736 49.7402 31.3514 50.7837 30.6389C52.0385 29.7812 52.9895 28.4882 53.3989 26.984C53.5442 26.4299 53.6235 25.8625 53.6235 25.2687V12.0347H58.1142Z" fill="white"/>
<path d="M73.1444 11.3086C66.395 11.3086 60.9268 16.7711 60.9268 23.5135C60.9268 30.2559 66.395 35.7184 73.1444 35.7184C79.8938 35.7184 85.3619 30.2559 85.3619 23.5135C85.3619 16.7711 79.8938 11.3086 73.1444 11.3086ZM73.1444 31.2191C68.8781 31.2191 65.4308 27.7621 65.4308 23.5135C65.4308 19.2649 68.8913 15.8079 73.1444 15.8079C77.3974 15.8079 80.858 19.2649 80.858 23.5135C80.858 27.7621 77.4106 31.2191 73.1444 31.2191Z" fill="white"/>
<path d="M107.354 11.3086C100.605 11.3086 95.1368 16.7711 95.1368 23.5135C95.1368 30.2559 100.605 35.7184 107.354 35.7184C114.104 35.7184 119.572 30.2559 119.572 23.5135C119.572 16.7711 114.104 11.3086 107.354 11.3086ZM107.354 31.2191C103.088 31.2191 99.6408 27.7621 99.6408 23.5135C99.6408 19.2649 103.101 15.8079 107.354 15.8079C111.621 15.8079 115.068 19.2649 115.068 23.5135C115.068 27.7621 111.621 31.2191 107.354 31.2191Z" fill="white"/>
<path d="M63.2822 41.9971H64.22V46.1797H63.2822V41.9971Z" fill="white"/>
<path d="M69.4114 42.2352C69.6491 42.4727 69.8076 42.7366 69.8869 43.0268C69.9529 43.3171 69.9925 43.5942 69.9925 43.8449V46.1803H69.0415V44.1748C69.0415 43.2379 68.7113 42.763 68.0641 42.763C67.7868 42.763 67.549 42.8553 67.3641 43.0532C67.1792 43.2511 67.0867 43.5678 67.0867 44.0428V46.1803H66.1357V41.9977H66.9678V42.4595C67.1263 42.2748 67.3245 42.1296 67.549 42.0241C67.7735 41.9185 68.0377 41.8657 68.3415 41.8657C68.817 41.8789 69.1736 41.9977 69.4114 42.2352Z" fill="white"/>
<path d="M71.3899 41.9971H72.3277L73.3843 45.0318L74.4278 41.9971H75.3656L73.8466 46.1797H72.9088L71.3899 41.9971Z" fill="white"/>
<path d="M77.7707 45.1526C77.9556 45.3373 78.2066 45.4297 78.5236 45.4297C78.7481 45.4297 78.9462 45.3769 79.1179 45.2714C79.2897 45.1658 79.4085 45.0207 79.501 44.8227L80.4256 45.0998C80.3199 45.3505 80.1746 45.5616 79.9897 45.7464C79.8048 45.9311 79.5934 46.063 79.3425 46.1554C79.1047 46.2477 78.8406 46.3005 78.5764 46.3005C78.1538 46.3005 77.7839 46.2082 77.4669 46.0234C77.1499 45.8387 76.899 45.588 76.7141 45.2582C76.5291 44.9283 76.4499 44.5589 76.4499 44.1366C76.4499 43.688 76.5423 43.2922 76.7141 42.9491C76.8858 42.6061 77.1367 42.3422 77.4537 42.1575C77.7707 41.9727 78.1273 41.8804 78.5368 41.8804C78.933 41.8804 79.2897 41.9727 79.5802 42.1443C79.8708 42.3158 80.0953 42.5797 80.2538 42.9095C80.4123 43.2394 80.4916 43.622 80.4916 44.0707C80.4916 44.163 80.4916 44.2554 80.4784 44.3477H77.4537C77.4801 44.704 77.5858 44.9679 77.7707 45.1526ZM77.4669 43.6484H79.5274C79.4878 43.3186 79.3821 43.0811 79.2368 42.9359C79.0783 42.7776 78.8538 42.7116 78.5632 42.7116C77.9424 42.6984 77.5858 43.0151 77.4669 43.6484Z" fill="white"/>
<path d="M82.474 45.9428C82.157 45.7053 81.9589 45.3887 81.8796 44.9664L82.8306 44.8213C82.8835 45.0324 82.9891 45.1907 83.1476 45.3095C83.3061 45.4282 83.5307 45.481 83.7816 45.481C84.0062 45.481 84.1779 45.4414 84.2967 45.3491C84.4156 45.2567 84.4816 45.138 84.4816 44.9796C84.4816 44.8741 84.4552 44.8081 84.4156 44.7421C84.3628 44.6893 84.2703 44.6366 84.125 44.5838C83.9797 44.531 83.742 44.465 83.4118 44.3727C83.0552 44.2803 82.7778 44.1748 82.5797 44.0692C82.3683 43.9636 82.223 43.8317 82.1306 43.6866C82.0381 43.5414 81.9985 43.3567 81.9985 43.1456C81.9985 42.8817 82.0645 42.6574 82.1966 42.4727C82.3287 42.2748 82.5268 42.1296 82.7778 42.0241C83.0288 41.9185 83.3193 41.8657 83.6495 41.8657C83.9665 41.8657 84.2571 41.9185 84.5081 42.0109C84.759 42.1164 84.9704 42.2616 85.1156 42.4463C85.2741 42.631 85.3666 42.8553 85.4062 43.0928L84.4552 43.2643C84.4288 43.0928 84.3496 42.9477 84.2043 42.8421C84.0722 42.7366 83.8873 42.6838 83.6627 42.6706C83.4382 42.6574 83.2665 42.697 83.1344 42.7761C83.0023 42.8553 82.9363 42.9609 82.9363 43.106C82.9363 43.1852 82.9627 43.2643 83.0155 43.3171C83.0684 43.3699 83.174 43.4227 83.3325 43.4755C83.491 43.5282 83.742 43.6074 84.0722 43.6866C84.4156 43.7789 84.6798 43.8713 84.8779 43.9768C85.076 44.0824 85.2213 44.2143 85.3138 44.3595C85.4062 44.5046 85.4459 44.6893 85.4459 44.9136C85.4459 45.1907 85.3798 45.4282 85.2345 45.6393C85.1024 45.8373 84.8911 45.9956 84.6401 46.1012C84.376 46.2067 84.0722 46.2595 83.7156 46.2595C83.2137 46.2991 82.791 46.1803 82.474 45.9428Z" fill="white"/>
<path d="M88.3111 44.4255V44.6498C88.3111 44.7817 88.3111 44.8873 88.3243 44.9796C88.3376 45.0588 88.364 45.1248 88.3904 45.1908C88.4432 45.2831 88.5357 45.3623 88.6413 45.4019C88.747 45.4415 88.8791 45.4678 89.0376 45.4678C89.1829 45.4678 89.3414 45.4546 89.5395 45.4283V46.2067C89.2885 46.2595 89.0508 46.2859 88.8263 46.2859C88.5225 46.2859 88.2583 46.2331 88.0338 46.1408C87.8092 46.0484 87.6375 45.9033 87.5319 45.6921C87.4658 45.5734 87.4262 45.4415 87.3998 45.3227C87.3734 45.204 87.3734 45.0456 87.3734 44.8609V44.5046V42.763H86.6205V42.0373H87.3734V41.2456H88.2979V42.0373H89.5263V42.763H88.2979V44.4255H88.3111Z" fill="white"/>
<path d="M96.5178 42.0895C96.7291 42.2083 96.9008 42.393 97.0065 42.6173C97.1121 42.8416 97.1782 43.1055 97.1782 43.409V46.1798H96.2404V43.6465C96.2404 43.3694 96.1743 43.1451 96.029 42.9736C95.8838 42.802 95.6988 42.736 95.4479 42.736C95.3026 42.736 95.1573 42.7756 95.0384 42.8416C94.9196 42.9076 94.8271 43.0131 94.7611 43.1451C94.695 43.277 94.6554 43.4354 94.6554 43.6201V46.1798H93.7308V43.6597C93.7308 43.3694 93.6648 43.1451 93.5195 42.9867C93.3742 42.8284 93.1893 42.736 92.9383 42.736C92.7798 42.736 92.6477 42.7756 92.5289 42.8416C92.41 42.9208 92.3175 43.0131 92.2515 43.1451C92.1855 43.277 92.159 43.4354 92.159 43.6069V46.1798H91.2213V41.9972H92.0402V42.4458C92.1855 42.2742 92.3572 42.1291 92.5685 42.0367C92.7798 41.9444 93.0044 41.8916 93.2553 41.8916C93.5459 41.8916 93.7836 41.9444 93.995 42.0631C94.2063 42.1819 94.3648 42.3402 94.4705 42.5513C94.6026 42.3402 94.7743 42.1819 94.9988 42.0631C95.2233 41.9444 95.4743 41.8916 95.7385 41.8916C96.0423 41.8916 96.3064 41.9576 96.5178 42.0895Z" fill="white"/>
<path d="M99.9881 45.1526C100.173 45.3373 100.424 45.4297 100.741 45.4297C100.965 45.4297 101.164 45.3769 101.335 45.2714C101.507 45.1658 101.626 45.0207 101.718 44.8227L102.643 45.0998C102.537 45.3505 102.392 45.5616 102.207 45.7464C102.022 45.9311 101.811 46.063 101.56 46.1554C101.322 46.2477 101.058 46.3005 100.794 46.3005C100.371 46.3005 100.001 46.2082 99.6843 46.0234C99.3673 45.8387 99.1163 45.588 98.9314 45.2582C98.7465 44.9283 98.6672 44.5589 98.6672 44.1366C98.6672 43.688 98.7597 43.2922 98.9314 42.9491C99.1031 42.6061 99.3541 42.3422 99.6711 42.1575C99.9881 41.9727 100.345 41.8804 100.754 41.8804C101.15 41.8804 101.507 41.9727 101.798 42.1443C102.088 42.3158 102.313 42.5797 102.471 42.9095C102.63 43.2394 102.709 43.622 102.709 44.0707C102.709 44.163 102.709 44.2554 102.696 44.3477H99.6711C99.6843 44.704 99.8031 44.9679 99.9881 45.1526ZM99.6711 43.6484H101.732C101.692 43.3186 101.586 43.0811 101.441 42.9359C101.282 42.7776 101.058 42.7116 100.767 42.7116C100.16 42.6984 99.7899 43.0151 99.6711 43.6484Z" fill="white"/>
<path d="M107.462 42.2352C107.7 42.4727 107.858 42.7366 107.938 43.0268C108.004 43.3171 108.043 43.5942 108.043 43.8449V46.1803H107.092V44.1748C107.092 43.2379 106.762 42.763 106.115 42.763C105.837 42.763 105.6 42.8553 105.415 43.0532C105.23 43.2511 105.137 43.5678 105.137 44.0428V46.1803H104.186V41.9977H105.019V42.4595C105.177 42.2748 105.375 42.1296 105.6 42.0241C105.824 41.9185 106.088 41.8657 106.392 41.8657C106.868 41.8789 107.224 41.9977 107.462 42.2352Z" fill="white"/>
<path d="M111.05 44.4255V44.6498C111.05 44.7817 111.05 44.8873 111.063 44.9796C111.077 45.0588 111.103 45.1248 111.129 45.1908C111.182 45.2831 111.275 45.3623 111.38 45.4019C111.486 45.4415 111.618 45.4678 111.777 45.4678C111.922 45.4678 112.08 45.4546 112.278 45.4283V46.2067C112.027 46.2595 111.79 46.2859 111.565 46.2859C111.261 46.2859 110.997 46.2331 110.773 46.1408C110.548 46.0484 110.376 45.9033 110.271 45.6921C110.205 45.5734 110.165 45.4415 110.139 45.3227C110.112 45.204 110.112 45.0456 110.112 44.8609V44.5046V42.763H109.359V42.0373H110.112V41.2456H111.037V42.0373H112.265V42.763H111.037V44.4255H111.05Z" fill="white"/>
<path d="M114.318 45.9428C114.001 45.7053 113.803 45.3887 113.723 44.9664L114.674 44.8213C114.727 45.0324 114.833 45.1907 114.991 45.3095C115.15 45.4282 115.374 45.481 115.625 45.481C115.85 45.481 116.022 45.4414 116.14 45.3491C116.259 45.2567 116.325 45.138 116.325 44.9796C116.325 44.8741 116.299 44.8081 116.259 44.7421C116.206 44.6893 116.114 44.6366 115.969 44.5838C115.823 44.531 115.586 44.465 115.255 44.3727C114.899 44.2803 114.621 44.1748 114.423 44.0692C114.212 43.9636 114.067 43.8317 113.974 43.6866C113.882 43.5414 113.842 43.3567 113.842 43.1456C113.842 42.8817 113.908 42.6574 114.04 42.4727C114.172 42.2748 114.371 42.1296 114.621 42.0241C114.872 41.9185 115.163 41.8657 115.493 41.8657C115.81 41.8657 116.101 41.9185 116.352 42.0109C116.603 42.1164 116.814 42.2616 116.959 42.4463C117.118 42.631 117.21 42.8553 117.25 43.0928L116.299 43.2643C116.273 43.0928 116.193 42.9477 116.048 42.8421C115.916 42.7366 115.731 42.6838 115.506 42.6706C115.282 42.6574 115.11 42.697 114.978 42.7761C114.846 42.8553 114.78 42.9609 114.78 43.106C114.78 43.1852 114.806 43.2643 114.859 43.3171C114.912 43.3699 115.018 43.4227 115.176 43.4755C115.335 43.5282 115.586 43.6074 115.916 43.6866C116.259 43.7789 116.523 43.8713 116.722 43.9768C116.92 44.0824 117.065 44.2143 117.157 44.3595C117.25 44.5046 117.29 44.6893 117.29 44.9136C117.29 45.1907 117.224 45.4282 117.078 45.6393C116.946 45.8373 116.735 45.9956 116.484 46.1012C116.22 46.2067 115.916 46.2595 115.559 46.2595C115.057 46.2991 114.635 46.1803 114.318 45.9428Z" fill="white"/>
<path d="M24.3035 11.9552L16.4974 16.9692V35.7053L12.5746 26.9178L8.82346 29.3324V45.0998C8.82346 45.6276 9.40462 45.931 9.84049 45.654L24.4223 36.2859C24.9903 35.9164 25.3337 35.2963 25.3337 34.6234V12.5094C25.3337 11.9948 24.7525 11.6782 24.3035 11.9552Z" fill="#F2B306"/>
<path d="M15.4932 0.64691L0.911366 10.0018C0.343413 10.3581 0 10.9914 0 11.6643V33.7783C0 34.306 0.581161 34.6095 1.01703 34.3324L8.82308 29.3185V10.3185L12.7459 19.3699L16.497 16.9553V1.20108C16.5103 0.673299 15.9291 0.356631 15.4932 0.64691Z" fill="#F4D314"/>
</svg>
