<svg width="120" height="48" viewBox="0 0 120 48" fill="none" xmlns="http://www.w3.org/2000/svg">
<path d="M92.4927 0H88.002V34.9786H92.4927V0Z" fill="black"/>
<path d="M58.1142 12.0346V36.009C58.1142 36.0882 58.1142 36.1805 58.1142 36.2597C57.9822 42.2236 53.1083 47 47.1118 47C42.3172 47 38.2359 43.9389 36.7302 39.6507L40.8115 37.6715C41.5512 40.4555 44.0871 42.5139 47.1118 42.5139C50.7176 42.5139 53.6235 39.5979 53.6235 36.009V34.1222C53.5442 34.175 53.4782 34.2277 53.3989 34.2805C51.6158 35.5208 49.4497 36.2465 47.1118 36.2465C44.774 36.2465 42.6078 35.5208 40.8247 34.2805C39.4511 33.3305 38.3151 32.0902 37.5094 30.6256C36.6113 29.0291 36.1094 27.2083 36.1094 25.2555V12.0346H40.6002V25.2687C40.6002 25.8624 40.6794 26.4298 40.8247 26.984C41.2342 28.4881 42.1719 29.7812 43.4399 30.6388C44.4834 31.3513 45.7514 31.7736 47.1118 31.7736C48.4723 31.7736 49.7402 31.3513 50.7837 30.6388C52.0385 29.7812 52.9895 28.4881 53.3989 26.984C53.5442 26.4298 53.6235 25.8624 53.6235 25.2687V12.0346H58.1142Z" fill="black"/>
<path d="M73.1453 11.3084C66.3959 11.3084 60.9277 16.7709 60.9277 23.5133C60.9277 30.2557 66.3959 35.7182 73.1453 35.7182C79.8947 35.7182 85.3629 30.2557 85.3629 23.5133C85.3629 16.7709 79.8947 11.3084 73.1453 11.3084ZM73.1453 31.2189C68.8791 31.2189 65.4317 27.7619 65.4317 23.5133C65.4317 19.2647 68.8923 15.8077 73.1453 15.8077C77.3984 15.8077 80.8589 19.2647 80.8589 23.5133C80.8589 27.7619 77.4116 31.2189 73.1453 31.2189Z" fill="black"/>
<path d="M107.354 11.3085C100.605 11.3085 95.1367 16.771 95.1367 23.5134C95.1367 30.2557 100.605 35.7183 107.354 35.7183C114.104 35.7183 119.572 30.2557 119.572 23.5134C119.572 16.771 114.104 11.3085 107.354 11.3085ZM107.354 31.2189C103.088 31.2189 99.6407 27.762 99.6407 23.5134C99.6407 19.2647 103.101 15.8078 107.354 15.8078C111.621 15.8078 115.068 19.2647 115.068 23.5134C115.068 27.762 111.621 31.2189 107.354 31.2189Z" fill="black"/>
<path d="M63.2812 41.9971H64.219V46.1798H63.2812V41.9971Z" fill="black"/>
<path d="M69.4104 42.2352C69.6482 42.4727 69.8067 42.7366 69.8859 43.0269C69.9519 43.3171 69.9916 43.5942 69.9916 43.8449V46.1803H69.0406V44.1748C69.0406 43.238 68.7104 42.763 68.0632 42.763C67.7858 42.763 67.548 42.8553 67.3631 43.0532C67.1782 43.2512 67.0858 43.5678 67.0858 44.0428V46.1803H66.1348V41.9977H66.9669V42.4595C67.1254 42.2748 67.3235 42.1296 67.548 42.0241C67.7726 41.9185 68.0368 41.8657 68.3405 41.8657C68.816 41.8789 69.1727 41.9977 69.4104 42.2352Z" fill="black"/>
<path d="M71.3887 41.9971H72.3265L73.3831 45.0318L74.4266 41.9971H75.3643L73.8454 46.1798H72.9076L71.3887 41.9971Z" fill="black"/>
<path d="M77.77 45.1526C77.955 45.3373 78.2059 45.4297 78.5229 45.4297C78.7474 45.4297 78.9456 45.3769 79.1173 45.2713C79.289 45.1658 79.4079 45.0206 79.5003 44.8227L80.4249 45.0998C80.3192 45.3505 80.1739 45.5616 79.989 45.7463C79.8041 45.9311 79.5928 46.063 79.3418 46.1554C79.1041 46.2477 78.8399 46.3005 78.5757 46.3005C78.1531 46.3005 77.7832 46.2081 77.4663 46.0234C77.1493 45.8387 76.8983 45.588 76.7134 45.2581C76.5285 44.9283 76.4492 44.5588 76.4492 44.1366C76.4492 43.688 76.5417 43.2922 76.7134 42.9491C76.8851 42.606 77.136 42.3421 77.453 42.1574C77.77 41.9727 78.1267 41.8803 78.5361 41.8803C78.9324 41.8803 79.289 41.9727 79.5796 42.1442C79.8701 42.3158 80.0947 42.5797 80.2532 42.9095C80.4117 43.2394 80.4909 43.622 80.4909 44.0706C80.4909 44.163 80.4909 44.2554 80.4777 44.3477H77.453C77.4795 44.704 77.5851 44.9679 77.77 45.1526ZM77.4663 43.6484H79.5267C79.4871 43.3185 79.3814 43.081 79.2362 42.9359C79.0777 42.7776 78.8531 42.7116 78.5625 42.7116C77.9417 42.6984 77.5851 43.0151 77.4663 43.6484Z" fill="black"/>
<path d="M82.4733 45.9428C82.1563 45.7053 81.9582 45.3887 81.8789 44.9664L82.8299 44.8213C82.8827 45.0324 82.9884 45.1908 83.1469 45.3095C83.3054 45.4283 83.5299 45.481 83.7809 45.481C84.0054 45.481 84.1771 45.4415 84.296 45.3491C84.4149 45.2567 84.4809 45.138 84.4809 44.9796C84.4809 44.8741 84.4545 44.8081 84.4149 44.7421C84.362 44.6894 84.2696 44.6366 84.1243 44.5838C83.979 44.531 83.7413 44.4651 83.4111 44.3727C83.0544 44.2803 82.7771 44.1748 82.5789 44.0692C82.3676 43.9637 82.2223 43.8317 82.1299 43.6866C82.0374 43.5414 81.9978 43.3567 81.9978 43.1456C81.9978 42.8817 82.0638 42.6574 82.1959 42.4727C82.328 42.2748 82.5261 42.1296 82.7771 42.0241C83.028 41.9185 83.3186 41.8657 83.6488 41.8657C83.9658 41.8657 84.2564 41.9185 84.5073 42.0109C84.7583 42.1164 84.9696 42.2616 85.1149 42.4463C85.2734 42.631 85.3659 42.8553 85.4055 43.0928L84.4545 43.2644C84.4281 43.0928 84.3488 42.9477 84.2035 42.8421C84.0715 42.7366 83.8866 42.6838 83.662 42.6706C83.4375 42.6574 83.2658 42.697 83.1337 42.7762C83.0016 42.8553 82.9356 42.9609 82.9356 43.106C82.9356 43.1852 82.962 43.2644 83.0148 43.3171C83.0676 43.3699 83.1733 43.4227 83.3318 43.4755C83.4903 43.5283 83.7413 43.6074 84.0715 43.6866C84.4149 43.7789 84.679 43.8713 84.8772 43.9769C85.0753 44.0824 85.2206 44.2144 85.313 44.3595C85.4055 44.5046 85.4451 44.6894 85.4451 44.9137C85.4451 45.1908 85.3791 45.4283 85.2338 45.6394C85.1017 45.8373 84.8904 45.9956 84.6394 46.1012C84.3753 46.2067 84.0715 46.2595 83.7148 46.2595C83.2129 46.2991 82.7903 46.1803 82.4733 45.9428Z" fill="black"/>
<path d="M88.3098 44.4253V44.6496C88.3098 44.7815 88.3098 44.8871 88.323 44.9794C88.3362 45.0586 88.3626 45.1246 88.389 45.1906C88.4419 45.2829 88.5343 45.3621 88.64 45.4017C88.7457 45.4413 88.8777 45.4676 89.0362 45.4676C89.1815 45.4676 89.34 45.4544 89.5382 45.4281V46.2065C89.2872 46.2593 89.0495 46.2857 88.8249 46.2857C88.5211 46.2857 88.257 46.2329 88.0324 46.1406C87.8079 46.0482 87.6362 45.9031 87.5305 45.6919C87.4645 45.5732 87.4248 45.4413 87.3984 45.3225C87.372 45.2038 87.372 45.0454 87.372 44.8607V44.5044V42.7628H86.6191V42.0371H87.372V41.2454H88.2966V42.0371H89.5249V42.7628H88.2966V44.4253H88.3098Z" fill="black"/>
<path d="M96.5172 42.0892C96.7285 42.208 96.9002 42.3927 97.0059 42.617C97.1116 42.8413 97.1776 43.1052 97.1776 43.4087V46.1795H96.2398V43.6462C96.2398 43.3691 96.1738 43.1448 96.0285 42.9732C95.8832 42.8017 95.6983 42.7357 95.4473 42.7357C95.302 42.7357 95.1568 42.7753 95.0379 42.8413C94.919 42.9073 94.8266 43.0128 94.7605 43.1448C94.6945 43.2767 94.6548 43.435 94.6548 43.6198V46.1795H93.7303V43.6593C93.7303 43.3691 93.6642 43.1448 93.5189 42.9864C93.3736 42.8281 93.1887 42.7357 92.9378 42.7357C92.7793 42.7357 92.6472 42.7753 92.5283 42.8413C92.4094 42.9205 92.317 43.0128 92.251 43.1448C92.1849 43.2767 92.1585 43.435 92.1585 43.6066V46.1795H91.2207V41.9968H92.0396V42.4455C92.1849 42.2739 92.3566 42.1288 92.5679 42.0364C92.7793 41.9441 93.0038 41.8913 93.2548 41.8913C93.5454 41.8913 93.7831 41.9441 93.9944 42.0628C94.2058 42.1816 94.3643 42.3399 94.4699 42.551C94.602 42.3399 94.7737 42.1816 94.9983 42.0628C95.2228 41.9441 95.4737 41.8913 95.7379 41.8913C96.0417 41.8913 96.3059 41.9573 96.5172 42.0892Z" fill="black"/>
<path d="M99.9868 45.1526C100.172 45.3373 100.423 45.4297 100.74 45.4297C100.964 45.4297 101.162 45.3769 101.334 45.2713C101.506 45.1658 101.625 45.0206 101.717 44.8227L102.642 45.0998C102.536 45.3505 102.391 45.5616 102.206 45.7463C102.021 45.9311 101.81 46.063 101.559 46.1554C101.321 46.2477 101.057 46.3005 100.793 46.3005C100.37 46.3005 100 46.2081 99.6831 46.0234C99.3661 45.8387 99.1151 45.588 98.9302 45.2581C98.7453 44.9283 98.666 44.5588 98.666 44.1366C98.666 43.688 98.7585 43.2922 98.9302 42.9491C99.1019 42.606 99.3528 42.3421 99.6698 42.1574C99.9868 41.9727 100.343 41.8803 100.753 41.8803C101.149 41.8803 101.506 41.9727 101.796 42.1442C102.087 42.3158 102.311 42.5797 102.47 42.9095C102.628 43.2394 102.708 43.622 102.708 44.0706C102.708 44.163 102.708 44.2554 102.695 44.3477H99.6698C99.683 44.704 99.8019 44.9679 99.9868 45.1526ZM99.6698 43.6484H101.73C101.691 43.3185 101.585 43.081 101.44 42.9359C101.281 42.7776 101.057 42.7116 100.766 42.7116C100.159 42.6984 99.7887 43.0151 99.6698 43.6484Z" fill="black"/>
<path d="M107.461 42.2352C107.699 42.4727 107.857 42.7366 107.937 43.0269C108.003 43.3171 108.042 43.5942 108.042 43.8449V46.1803H107.091V44.1748C107.091 43.238 106.761 42.763 106.114 42.763C105.837 42.763 105.599 42.8553 105.414 43.0532C105.229 43.2512 105.137 43.5678 105.137 44.0428V46.1803H104.186V41.9977H105.018V42.4595C105.176 42.2748 105.374 42.1296 105.599 42.0241C105.823 41.9185 106.088 41.8657 106.391 41.8657C106.867 41.8789 107.223 41.9977 107.461 42.2352Z" fill="black"/>
<path d="M111.05 44.4253V44.6496C111.05 44.7815 111.05 44.8871 111.063 44.9794C111.076 45.0586 111.103 45.1246 111.129 45.1906C111.182 45.2829 111.275 45.3621 111.38 45.4017C111.486 45.4413 111.618 45.4676 111.776 45.4676C111.922 45.4676 112.08 45.4544 112.278 45.4281V46.2065C112.027 46.2593 111.79 46.2857 111.565 46.2857C111.261 46.2857 110.997 46.2329 110.773 46.1406C110.548 46.0482 110.376 45.9031 110.271 45.6919C110.205 45.5732 110.165 45.4413 110.139 45.3225C110.112 45.2038 110.112 45.0454 110.112 44.8607V44.5044V42.7628H109.359V42.0371H110.112V41.2454H111.037V42.0371H112.265V42.7628H111.037V44.4253H111.05Z" fill="black"/>
<path d="M114.317 45.9428C114 45.7053 113.802 45.3887 113.723 44.9664L114.674 44.8213C114.726 45.0324 114.832 45.1908 114.991 45.3095C115.149 45.4283 115.374 45.481 115.625 45.481C115.849 45.481 116.021 45.4415 116.14 45.3491C116.259 45.2567 116.325 45.138 116.325 44.9796C116.325 44.8741 116.298 44.8081 116.259 44.7421C116.206 44.6894 116.113 44.6366 115.968 44.5838C115.823 44.531 115.585 44.4651 115.255 44.3727C114.898 44.2803 114.621 44.1748 114.423 44.0692C114.211 43.9637 114.066 43.8317 113.974 43.6866C113.881 43.5414 113.842 43.3567 113.842 43.1456C113.842 42.8817 113.908 42.6574 114.04 42.4727C114.172 42.2748 114.37 42.1296 114.621 42.0241C114.872 41.9185 115.162 41.8657 115.493 41.8657C115.81 41.8657 116.1 41.9185 116.351 42.0109C116.602 42.1164 116.813 42.2616 116.959 42.4463C117.117 42.631 117.21 42.8553 117.249 43.0928L116.298 43.2644C116.272 43.0928 116.193 42.9477 116.047 42.8421C115.915 42.7366 115.73 42.6838 115.506 42.6706C115.281 42.6574 115.11 42.697 114.977 42.7762C114.845 42.8553 114.779 42.9609 114.779 43.106C114.779 43.1852 114.806 43.2644 114.859 43.3171C114.911 43.3699 115.017 43.4227 115.176 43.4755C115.334 43.5283 115.585 43.6074 115.915 43.6866C116.259 43.7789 116.523 43.8713 116.721 43.9769C116.919 44.0824 117.064 44.2144 117.157 44.3595C117.249 44.5046 117.289 44.6894 117.289 44.9137C117.289 45.1908 117.223 45.4283 117.078 45.6394C116.945 45.8373 116.734 45.9956 116.483 46.1012C116.219 46.2067 115.915 46.2595 115.559 46.2595C115.057 46.2991 114.634 46.1803 114.317 45.9428Z" fill="black"/>
<path d="M24.3042 11.9548L16.4982 16.9687V35.7049L12.5753 26.9174L8.82422 29.3319V45.0994C8.82422 45.6271 9.40538 45.9306 9.84125 45.6535L24.4231 36.2854C24.9911 35.916 25.3345 35.2959 25.3345 34.6229V12.509C25.3345 11.9944 24.7533 11.6777 24.3042 11.9548Z" fill="#F2B306"/>
<path d="M15.4932 0.646696L0.911366 10.0016C0.343413 10.3578 0 10.9912 0 11.6641V33.7781C0 34.3058 0.581161 34.6093 1.01703 34.3322L8.82308 29.3183V10.3183L12.7459 19.3697L16.497 16.9551V1.20086C16.5103 0.673085 15.9291 0.356418 15.4932 0.646696Z" fill="#F4D314"/>
</svg>
