<svg width="186" height="30" viewBox="0 0 186 30" fill="none" xmlns="http://www.w3.org/2000/svg">
<path d="M13.8141 14.0856C13.733 14.0045 13.57 13.9234 13.4078 13.8422C13.2449 13.7611 13.1637 13.6793 13.0015 13.6793H6.33814V16.1172H11.7825C11.7014 16.6858 11.4573 17.2543 11.214 17.7425C10.9541 18.2434 10.5945 18.6859 10.1573 19.0426C9.75094 19.4489 9.26349 19.6929 8.69423 19.937C8.12566 20.1797 7.63822 20.2615 6.98853 20.2615C6.33814 20.2615 5.68845 20.0986 5.11919 19.8552C4.55062 19.6111 4.06318 19.2048 3.57574 18.7985C3.16942 18.311 2.7631 17.8236 2.51903 17.1732C2.43791 16.6046 2.27496 15.955 2.27496 15.3046C2.27496 14.6549 2.43791 14.0045 2.68128 13.3541C2.92535 12.7855 3.24985 12.217 3.73799 11.8106C4.1443 11.3232 4.71287 10.998 5.28213 10.7539C5.8507 10.5106 6.50039 10.3476 7.15078 10.3476C7.47597 10.3476 7.80117 10.3476 8.12566 10.4294C8.45155 10.5106 8.69423 10.5917 9.02012 10.7539C9.58869 10.998 10.0761 11.3225 10.5636 11.8106L12.1888 10.1854C11.5385 9.53499 10.8076 8.96642 9.91319 8.56011C9.50756 8.39786 9.01943 8.23491 8.61311 8.15379C8.04454 7.99154 7.5571 7.91041 7.06965 7.91041C6.09477 7.91041 5.20031 8.07266 4.30655 8.47898C3.41279 8.8853 2.68128 9.37344 2.03159 10.0231C1.3812 10.6728 0.894454 11.4862 0.487443 12.3792C0.162943 13.2737 0 14.2486 0 15.3053C0 16.2795 0.162943 17.255 0.568568 18.1481C0.974886 19.0426 1.46302 19.8552 2.11271 20.5056C2.7631 21.1553 3.49392 21.7238 4.38768 22.049C5.20031 22.4553 6.09477 22.6176 7.06965 22.6176C8.04454 22.6176 8.9383 22.4553 9.75094 22.049C10.6454 21.6427 11.3762 21.1546 12.0259 20.5049C12.6763 19.8552 13.1637 19.1237 13.57 18.2299C13.9764 17.3355 14.1386 16.4424 14.1386 15.4668V14.8171C14.1386 14.6549 14.1386 14.4919 14.0575 14.4108C13.9764 14.3297 13.8952 14.1667 13.8141 14.0856ZM121.318 14.0856C121.237 14.0045 121.074 13.9234 120.912 13.8422C120.749 13.7611 120.668 13.7611 120.506 13.7611H113.843V16.1172H119.287C119.206 16.6858 118.962 17.2543 118.718 17.7425C118.458 18.2433 118.099 18.6858 117.662 19.0426C117.255 19.4489 116.768 19.6929 116.199 19.937C115.63 20.1797 115.143 20.2615 114.493 20.2615C113.843 20.2615 113.192 20.0986 112.624 19.8552C112.055 19.6111 111.568 19.2048 111.079 18.7985C110.674 18.311 110.267 17.8236 110.023 17.1732C109.756 16.5579 109.618 15.8943 109.617 15.2234C109.617 14.5731 109.779 13.9234 110.023 13.273C110.267 12.7044 110.592 12.1358 111.079 11.7295C111.486 11.2414 112.055 10.9169 112.624 10.6728C113.192 10.4294 113.843 10.2665 114.493 10.2665C114.817 10.2665 115.143 10.2665 115.468 10.3476C115.793 10.4294 116.036 10.5106 116.362 10.6735C116.93 10.9162 117.418 11.2421 117.906 11.7295L119.53 10.1043C118.881 9.45387 118.149 8.8853 117.255 8.47898C116.849 8.31673 116.362 8.15379 115.955 8.07266C115.468 7.99154 115.061 7.91041 114.574 7.91041C113.598 7.91041 112.705 8.07266 111.811 8.47898C110.917 8.8853 110.186 9.37344 109.536 10.0231C108.886 10.6728 108.398 11.4862 107.992 12.3792C107.585 13.2737 107.423 14.2486 107.423 15.2234C107.423 16.1983 107.585 17.1739 107.992 18.0677C108.398 18.9614 108.886 19.7734 109.536 20.4238C110.186 21.0741 110.917 21.6427 111.811 21.9679C112.705 22.3742 113.598 22.5365 114.574 22.5365C115.549 22.5365 116.443 22.3742 117.255 21.9679C118.149 21.5616 118.881 21.0735 119.53 20.4238C120.181 19.7741 120.668 19.0426 121.074 18.1488C121.481 17.2543 121.643 16.3613 121.643 15.3857V14.736C121.643 14.5731 121.643 14.4108 121.562 14.3297C121.481 14.3297 121.4 14.2486 121.318 14.0856ZM185.675 14.166C185.594 14.0849 185.431 14.0038 185.268 13.9227C185.106 13.8415 185.024 13.8415 184.862 13.8415H178.199V16.1976H183.643C183.562 16.7662 183.318 17.3348 183.075 17.8229C182.815 18.3238 182.455 18.7662 182.018 19.123C181.612 19.5293 181.124 19.7734 180.556 20.0174C179.986 20.2601 179.499 20.3419 178.849 20.3419C178.199 20.3419 177.549 20.1797 176.98 19.9356C176.411 19.6922 175.924 19.2852 175.436 18.8796C175.03 18.3915 174.624 17.904 174.38 17.2543C174.113 16.6387 173.974 15.9749 173.973 15.3039C173.973 14.6542 174.136 14.0038 174.38 13.3534C174.624 12.7848 174.949 12.2163 175.436 11.81C175.843 11.3225 176.411 10.9973 176.98 10.7533C177.549 10.5099 178.199 10.3469 178.849 10.3469C179.174 10.3469 179.499 10.3469 179.824 10.4288C180.149 10.5099 180.393 10.591 180.718 10.7533C181.297 10.9999 181.822 11.3591 182.262 11.81L183.887 10.1847C183.237 9.5343 182.505 8.96573 181.612 8.55941C181.205 8.39716 180.718 8.23422 180.312 8.1531C179.824 8.07197 179.418 7.99085 178.93 7.99085C177.955 7.99085 177.062 8.1531 176.167 8.55941C175.273 8.96573 174.543 9.45387 173.892 10.1036C173.242 10.7533 172.754 11.5666 172.348 12.4596C171.942 13.3541 171.78 14.329 171.78 15.3039C171.78 16.2788 171.942 17.2543 172.348 18.1481C172.754 19.0419 173.242 19.8538 173.892 20.5042C174.543 21.1546 175.273 21.7231 176.167 22.0483C177.062 22.4547 177.955 22.6169 178.93 22.6169C179.905 22.6169 180.799 22.4547 181.612 22.0483C182.505 21.642 183.237 21.1546 183.887 20.5042C184.537 19.8545 185.024 19.123 185.431 18.2292C185.837 17.3348 186 16.4417 186 15.4661V14.8164C186 14.6542 186 14.4912 185.918 14.4101C185.918 14.4101 185.756 14.329 185.675 14.166ZM36.5658 10.1043C35.9161 9.45387 35.1846 8.8853 34.2909 8.56011C33.3964 8.15379 32.5027 7.99154 31.5278 7.99154C30.5529 7.99154 29.6591 8.15379 28.7654 8.56011C27.8709 8.96642 27.1401 9.45456 26.4897 10.1043C25.84 10.7539 25.3526 11.5673 24.9463 12.4603C24.5399 13.3548 24.3777 14.3297 24.3777 15.3046C24.3777 16.2795 24.5399 17.255 24.9463 18.1488C25.3526 19.0426 25.84 19.8545 26.4897 20.5049C27.1401 21.1553 27.8716 21.7238 28.7654 22.049C29.6591 22.4553 30.5529 22.6176 31.5278 22.6176C32.5027 22.6176 33.3971 22.4553 34.2909 22.049C35.1846 21.6427 35.9161 21.1546 36.5658 20.5049C37.2162 19.8552 37.703 19.0419 38.11 18.1488C38.5163 17.2543 38.6786 16.2795 38.6786 15.3046C38.6786 14.3297 38.5163 13.3541 38.11 12.4603C37.7037 11.5666 37.2155 10.7546 36.5658 10.1043ZM35.9161 17.1732C35.6721 17.7418 35.3476 18.311 34.8594 18.7985C34.4531 19.2859 33.8846 19.6111 33.3153 19.8552C32.7467 20.0986 32.097 20.2615 31.4466 20.2615C30.7963 20.2615 30.1466 20.0986 29.578 19.8552C29.0094 19.6111 28.5213 19.2048 28.0339 18.7985C27.6275 18.311 27.2212 17.8236 26.9778 17.1732C26.7104 16.5579 26.5718 15.8944 26.5708 15.2234C26.5708 14.5731 26.7338 13.9234 26.9778 13.273C27.2212 12.7044 27.5464 12.1358 28.0339 11.7295C28.4402 11.2414 29.0087 10.9169 29.578 10.6728C30.1466 10.4294 30.797 10.2665 31.4466 10.2665C32.097 10.2665 32.7467 10.4294 33.316 10.6728C33.8846 10.9169 34.372 11.3232 34.8594 11.7295C35.302 12.176 35.66 12.6989 35.9161 13.273C36.1835 13.8885 36.3218 14.5524 36.3225 15.2234C36.3218 15.8945 36.1835 16.5584 35.9161 17.1739V17.1732ZM132.613 11.0778C132.37 10.5092 132.044 9.94062 131.638 9.5343C131.232 9.12798 130.744 8.72166 130.175 8.4776C129.606 8.23353 128.957 8.07128 128.387 8.07128C127.738 8.07128 127.169 8.23353 126.6 8.4776C126.031 8.72166 125.543 9.04616 125.138 9.5343C124.731 9.94062 124.406 10.5092 124.162 11.0778C123.919 11.6463 123.756 12.2967 123.756 12.703V22.6162H126.031V17.4159H130.825V22.6162H133.1V12.6219C133.019 12.2967 132.857 11.6463 132.613 11.0778ZM130.744 15.0598H125.95V12.9471C125.95 12.6212 126.031 12.2967 126.112 11.9715C126.275 11.6463 126.438 11.4029 126.6 11.1589C126.844 10.9155 127.087 10.7526 127.331 10.5903C127.656 10.4281 127.9 10.4281 128.225 10.4281C128.55 10.4281 128.875 10.5092 129.119 10.5903C129.444 10.7526 129.688 10.9155 129.85 11.1589C130.094 11.4029 130.257 11.6463 130.338 11.9715C130.5 12.2967 130.5 12.6219 130.5 12.9471V15.0598H130.744ZM138.22 12.703C138.22 12.3778 138.301 12.1345 138.382 11.8086C138.464 11.5659 138.626 11.3218 138.87 11.0778C139.032 10.9155 139.276 10.7526 139.52 10.5903C139.764 10.5092 140.089 10.4281 140.332 10.4281C140.657 10.4281 140.901 10.5092 141.145 10.5903C141.389 10.6714 141.632 10.8344 141.795 11.0778C141.957 11.2407 142.12 11.4841 142.283 11.8093C142.364 12.0533 142.445 12.3778 142.445 12.703V22.6162H144.721V12.703C144.721 12.3778 144.802 12.1345 144.883 11.8086C144.964 11.5659 145.127 11.3218 145.37 11.0778C145.533 10.9155 145.777 10.7526 146.021 10.5903C146.264 10.5092 146.589 10.4281 146.833 10.4281C147.158 10.4281 147.402 10.5092 147.646 10.5903C147.889 10.6714 148.133 10.8344 148.296 11.0778C148.458 11.2407 148.621 11.4841 148.783 11.8093C148.864 12.0533 148.946 12.3778 148.946 12.703V22.6162H151.221V12.703C151.221 12.0526 151.14 11.4841 150.896 10.9155C150.668 10.3697 150.337 9.87301 149.921 9.45248C149.5 9.03665 149.004 8.70567 148.458 8.4776C147.889 8.23353 147.321 8.07128 146.751 8.07128C146.102 8.07128 145.533 8.23353 144.964 8.4776C144.395 8.72166 143.908 9.12798 143.502 9.61473C143.095 9.12798 142.608 8.72166 142.039 8.4776C141.47 8.23353 140.82 8.07128 140.17 8.07128C139.577 8.07074 138.993 8.20994 138.464 8.4776C137.894 8.72166 137.489 9.04616 137.082 9.45248C136.666 9.87314 136.335 10.3698 136.107 10.9155C135.863 11.4841 135.782 12.0526 135.782 12.703V22.6162H138.057V12.703H138.22ZM162.435 13.2716C162.435 12.8653 162.516 12.5408 162.678 12.1345C162.841 11.8086 163.004 11.4841 163.248 11.24C163.51 10.9787 163.812 10.7596 164.141 10.5903C164.468 10.424 164.831 10.3402 165.197 10.3462C165.604 10.3462 165.929 10.4281 166.254 10.5903C166.579 10.7526 166.904 10.9155 167.148 11.2407C167.391 11.4841 167.554 11.8093 167.716 12.1345C167.879 12.459 167.96 12.8653 167.96 13.2716V22.6162H170.235V13.2716C170.235 12.5408 170.073 11.8904 169.829 11.24C169.585 10.5903 169.179 10.0217 168.773 9.5343C168.285 9.04616 167.798 8.72166 167.148 8.39647C166.497 8.1524 165.848 7.99015 165.197 7.99015C164.548 7.99015 163.816 8.1524 163.248 8.39647C162.597 8.63985 162.11 9.04616 161.622 9.53361C161.135 10.0217 160.81 10.5903 160.566 11.2407C160.322 11.8904 160.159 12.5408 160.159 13.2723V22.6155H162.435V13.2716ZM18.2836 20.179V7.99015H16.0073V21.3161C16.0073 21.642 16.0884 21.8847 16.3325 22.1288C16.5765 22.3728 16.8199 22.5351 17.1451 22.5351H24.2147V20.179H18.2829H18.2836ZM48.5113 14.8969C48.8358 14.5717 49.0799 14.0842 49.3239 13.6779C49.4862 13.1905 49.6484 12.703 49.6484 12.1345C49.6484 11.5659 49.5673 11.0778 49.3239 10.5903C49.0799 10.1029 48.8358 9.69586 48.5113 9.29023C48.1854 8.88391 47.6987 8.63985 47.2924 8.39578C46.8049 8.1531 46.3168 8.07128 45.7482 8.07128H41.848C41.6857 8.07128 41.6039 8.07128 41.4417 8.1524C41.2794 8.23353 41.1976 8.31535 41.0353 8.39647C40.9542 8.4776 40.8731 8.63984 40.7913 8.80279C40.629 8.96504 40.629 9.12798 40.629 9.29023V21.3979C40.629 21.7225 40.7101 21.9665 40.9542 22.2099C41.1976 22.454 41.4417 22.6162 41.7668 22.6162H45.6671C46.2356 22.6162 46.8042 22.5351 47.2924 22.2917C47.7798 22.0476 48.2672 21.7231 48.5924 21.3161C48.9988 20.9098 49.2421 20.4224 49.4862 19.9349C49.7303 19.4475 49.8114 18.8789 49.8114 18.2292C49.8114 17.5781 49.6484 17.0096 49.4862 16.4403C49.3239 15.7906 48.9176 15.3032 48.5113 14.8969ZM42.9033 10.4281H45.6664C45.8788 10.4299 46.0887 10.4739 46.2839 10.5576C46.4791 10.6412 46.6558 10.7629 46.8035 10.9155C47.1294 11.2407 47.2917 11.6463 47.2917 12.1345C47.2917 12.6219 47.1287 13.0282 46.8042 13.3534C46.6563 13.506 46.4795 13.6276 46.2842 13.7113C46.0889 13.795 45.8789 13.839 45.6664 13.8409H42.9033V10.4281ZM47.4539 18.96C47.3676 19.2037 47.2289 19.4255 47.0476 19.6097C46.8783 19.7715 46.6869 19.9083 46.479 20.0161C46.235 20.0979 45.9916 20.179 45.7475 20.179H42.9865V16.2781H45.7489C45.993 16.2781 46.2363 16.3599 46.4804 16.441C46.7245 16.5221 46.8867 16.6844 47.049 16.8473C47.2119 17.0096 47.3742 17.2536 47.4553 17.497C47.5364 17.7411 47.6182 17.9852 47.6182 18.2285C47.6182 18.4726 47.5364 18.716 47.4553 18.96H47.4539ZM67.0383 20.2608V8.1531H64.7626V21.4798C64.7626 21.805 64.8438 22.0483 65.0878 22.2924C65.3319 22.5358 65.5753 22.6987 65.9005 22.6987H73.1324V20.3412H67.0376V20.2601L67.0383 20.2608ZM60.3743 9.45248C59.9679 9.04616 59.4805 8.63985 58.9112 8.39647C58.3427 8.1524 57.693 7.99015 57.1237 7.99015C56.474 7.99015 55.9055 8.1524 55.3362 8.39647C54.7676 8.63985 54.2802 9.04616 53.8732 9.45248C53.4676 9.8588 53.1424 10.4281 52.8983 10.9966C52.6549 11.5652 52.492 12.2156 52.492 12.4596V22.6155H54.7676V17.4152H59.5616V22.6155H61.7555V12.459C61.7555 12.2156 61.5932 11.6463 61.3492 10.9966C61.1058 10.4281 60.7806 9.94062 60.3743 9.45248ZM59.4805 15.0598H54.6865V12.9471C54.6865 12.6212 54.7676 12.2967 54.8488 11.9715C55.011 11.6463 55.174 11.4029 55.3362 11.1589C55.5803 10.9155 55.8236 10.7526 56.0677 10.5903C56.3929 10.4281 56.6363 10.4281 56.9615 10.4281C57.2867 10.4281 57.6119 10.5092 57.8559 10.5903C58.1804 10.7526 58.4245 10.9155 58.5867 11.1589C58.8301 11.4029 58.9931 11.6463 59.0742 11.9715C59.2364 12.2967 59.2364 12.6219 59.2364 12.9471V15.0598H59.4805ZM156.828 8.07128H154.553V22.6162H156.828V8.07128ZM99.7039 4.49623C97.0219 1.9772 93.6091 0.677124 89.953 0.677124C86.0527 0.677124 82.2336 2.3024 79.5516 5.14662C74.1891 10.8344 74.4324 19.8538 80.202 25.2171C82.8833 27.7361 86.2961 29.0362 89.953 29.0362C91.3342 29.0362 92.7154 28.7921 94.0973 28.3858V12.6219H86.0527V16.7662H90.1152V25.0548H89.953C87.3528 25.0548 84.9149 24.0792 83.0456 22.2917C78.9831 18.4726 78.8201 12.0533 82.5581 7.99015C84.5086 5.95856 87.1087 4.82143 89.953 4.82143C92.5531 4.82143 94.991 5.79631 96.8597 7.58384C100.923 11.4029 101.085 17.8222 97.3471 21.8854L97.0226 22.2106V27.2486C98.2409 26.5171 99.3787 25.7045 100.354 24.6485C105.717 18.8789 105.392 9.8588 99.7039 4.49623Z" fill="black"/>
</svg>
