<svg width="172" height="29" viewBox="0 0 172 29" fill="none" xmlns="http://www.w3.org/2000/svg">
<path fill-rule="evenodd" clip-rule="evenodd" d="M14.603 0.152842C11.7854 0.14944 9.03019 0.981826 6.68585 2.54469C4.3415 4.10755 2.51339 6.33065 1.43281 8.93274C0.352226 11.5348 0.0677317 14.399 0.615319 17.1628C1.16291 19.9266 2.51797 22.4659 4.50906 24.4594C6.50015 26.4529 9.0378 27.811 11.801 28.3619C14.5641 28.9128 17.4286 28.6318 20.032 27.5544C22.6353 26.4769 24.8607 24.6515 26.4264 22.3091C27.992 19.9666 28.8278 17.2124 28.8278 14.3948C28.8278 10.6206 27.3296 7.0007 24.6625 4.3303C21.9953 1.6599 18.3772 0.157401 14.603 0.152842ZM14.603 25.5752C12.3917 25.5752 10.2301 24.9195 8.39151 23.6909C6.55292 22.4624 5.11991 20.7163 4.27369 18.6734C3.42748 16.6304 3.20608 14.3824 3.63747 12.2137C4.06887 10.0449 5.13369 8.05276 6.69728 6.48917C8.26088 4.92557 10.253 3.86075 12.4218 3.42936C14.5906 2.99796 16.8385 3.21937 18.8815 4.06558C20.9244 4.91179 22.6705 6.3448 23.8991 8.18339C25.1276 10.022 25.7833 12.1836 25.7833 14.3948C25.7833 15.8631 25.4941 17.3169 24.9322 18.6734C24.3704 20.0298 23.5468 21.2623 22.5086 22.3005C21.4705 23.3387 20.2379 24.1622 18.8815 24.7241C17.525 25.286 16.0712 25.5752 14.603 25.5752Z" fill="black"/>
<path d="M6.92271 14.1369C10.7463 14.1369 13.8459 11.0373 13.8459 7.21372C13.8459 3.39015 10.7463 0.290527 6.92271 0.290527C3.09913 0.290527 -0.000488281 3.39015 -0.000488281 7.21372C-0.000488281 11.0373 3.09913 14.1369 6.92271 14.1369Z" fill="url(#paint0_linear)"/>
<path d="M41.1253 12.8813L39.0784 12.0212C38.4946 11.7843 37.9474 11.4658 37.453 11.0752C37.2857 10.9321 37.1541 10.7517 37.069 10.5486C36.9839 10.3455 36.9475 10.1253 36.9628 9.90558C36.9505 9.65297 37.0024 9.40137 37.1137 9.17428C37.225 8.94718 37.392 8.75199 37.5992 8.60694C38.0727 8.29459 38.632 8.13821 39.1989 8.15973C39.9028 8.17717 40.5901 8.37742 41.1932 8.74081C41.7963 9.10419 42.2946 9.61822 42.6389 10.2324L45.1502 8.29733C44.6058 7.2679 43.795 6.40358 42.8024 5.79466C41.7178 5.15456 40.475 4.83267 39.2161 4.86584C37.6607 4.80035 36.1339 5.29809 34.9159 6.26768C34.3633 6.70952 33.9204 7.27331 33.622 7.91489C33.3235 8.55647 33.1777 9.25843 33.1959 9.96578C33.1767 11.0894 33.6034 12.1748 34.3827 12.9845C35.3062 13.9186 36.4051 14.6609 37.6164 15.1689L39.5515 16.029C40.1363 16.2956 40.5577 16.5106 40.8243 16.6568C41.1026 16.8155 41.3431 17.0326 41.5295 17.2932C41.7374 17.5745 41.849 17.9153 41.8477 18.265C41.8579 18.5459 41.8008 18.8252 41.6811 19.0795C41.5614 19.3338 41.3826 19.5559 41.1597 19.7271C40.6078 20.1066 39.945 20.2912 39.2763 20.2517C37.5562 20.2517 36.1114 19.3916 34.8557 17.6716L32.3101 19.5551C33.0023 20.785 34.0146 21.8046 35.2396 22.5057C36.4646 23.2068 37.8565 23.5631 39.2677 23.537C40.9189 23.6151 42.543 23.0961 43.843 22.0749C44.4109 21.5947 44.8612 20.9908 45.1594 20.3095C45.4575 19.6282 45.5956 18.8876 45.563 18.1446C45.6019 17.0274 45.211 15.9378 44.4708 15.1001C43.5213 14.1369 42.382 13.3813 41.1253 12.8813Z" fill="black"/>
<path d="M55.3934 9.4154C54.5685 9.36651 53.7442 9.5223 52.994 9.8689C52.2437 10.2155 51.5908 10.7422 51.0933 11.4021V9.68201H47.6704V28.1553H51.3599V21.9116C51.8726 22.4613 52.4993 22.8923 53.196 23.1746C53.8927 23.4568 54.6427 23.5835 55.3934 23.5456C56.2787 23.5718 57.159 23.4045 57.973 23.0554C58.787 22.7063 59.5151 22.1839 60.1064 21.5245C61.3493 20.1326 62.0084 18.3155 61.9468 16.4504C62.0097 14.5929 61.35 12.7833 60.1064 11.4021C59.5094 10.7521 58.7795 10.2383 57.9662 9.89549C57.153 9.55269 56.2755 9.38895 55.3934 9.4154ZM57.1995 19.1681C56.8772 19.4996 56.4904 19.7615 56.0629 19.9375C55.6353 20.1135 55.1763 20.2 54.714 20.1915C54.2667 20.1993 53.8223 20.1174 53.4072 19.9504C52.9921 19.7835 52.6147 19.535 52.2973 19.2197C51.9499 18.8513 51.682 18.4153 51.5104 17.9388C51.3388 17.4624 51.267 16.9557 51.2997 16.4504C51.2651 15.9434 51.3375 15.4349 51.5124 14.9577C51.6872 14.4806 51.9605 14.0457 52.3145 13.6811C52.9598 13.0649 53.822 12.7281 54.714 12.7437C55.1783 12.7298 55.6402 12.8138 56.0699 12.9901C56.4996 13.1664 56.8874 13.4311 57.2081 13.7671C57.5483 14.1281 57.8121 14.5542 57.9836 15.0198C58.155 15.4853 58.2306 15.9807 58.2057 16.4762C58.2276 16.9695 58.1497 17.4621 57.9768 17.9247C57.804 18.3872 57.5396 18.8101 57.1995 19.1681Z" fill="black"/>
<path d="M70.4007 9.41535C69.4483 9.38941 68.5005 9.55579 67.6139 9.90453C66.7273 10.2533 65.9201 10.7772 65.2405 11.445C64.5609 12.0868 64.0232 12.8636 63.6618 13.7257C63.3004 14.5877 63.1233 15.5158 63.1421 16.4503C63.1195 17.3889 63.2929 18.3219 63.6513 19.1897C64.0097 20.0574 64.5451 20.8409 65.2233 21.4901C65.8972 22.1534 66.6973 22.6748 67.5762 23.0235C68.4552 23.3721 69.3952 23.5409 70.3405 23.5197C71.2936 23.5395 72.241 23.3686 73.1272 23.0171C74.0133 22.6656 74.8202 22.1406 75.5006 21.4729C76.1875 20.8318 76.7317 20.0532 77.0977 19.1878C77.4637 18.3225 77.6433 17.3897 77.6249 16.4503C77.643 15.5135 77.4632 14.5834 77.0971 13.7209C76.7311 12.8583 76.1871 12.0828 75.5006 11.445C74.8263 10.7873 74.0285 10.2694 73.1533 9.92104C72.2781 9.57271 71.3426 9.40086 70.4007 9.41535ZM72.9034 19.0992C72.2365 19.7604 71.3355 20.1314 70.3964 20.1314C69.4573 20.1314 68.5563 19.7604 67.8894 19.0992C67.5603 18.7453 67.3043 18.3299 67.136 17.8768C66.9678 17.4237 66.8906 16.9419 66.909 16.4589C66.8905 15.4803 67.2546 14.533 67.9238 13.8187C68.2445 13.4763 68.6341 13.2057 69.067 13.0249C69.4999 12.844 69.9661 12.757 70.4351 12.7694C70.9043 12.7576 71.3706 12.8467 71.8023 13.0307C72.2341 13.2146 72.6213 13.4892 72.9378 13.8359C73.6015 14.5518 73.9568 15.5003 73.9268 16.4761C73.9395 16.9595 73.8556 17.4405 73.6798 17.891C73.5041 18.3414 73.2401 18.7522 72.9034 19.0992Z" fill="black"/>
<path d="M94.3353 19.7699C94.1166 19.5636 93.9484 19.3096 93.844 19.0277C93.7396 18.7457 93.7017 18.4435 93.7333 18.1445V12.8209H97.5518V9.71622H93.7247V6.27612H90.0438V9.60442H87.9109C87.5194 9.51324 87.1165 9.48135 86.7155 9.50981C85.9971 9.48679 85.2837 9.63829 84.6367 9.95134C83.9896 10.2644 83.4281 10.7297 83.0002 11.3073V9.67322H79.6289V23.1756H83.3098V16.476C83.2717 15.9946 83.3372 15.5106 83.5019 15.0567C83.6665 14.6027 83.9266 14.1893 84.2644 13.8443C84.9876 13.1828 85.9332 12.8175 86.9133 12.8209H90.0266V18.4713C89.9746 19.1703 90.0736 19.8724 90.317 20.5298C90.5603 21.1872 90.9423 21.7845 91.437 22.2812C92.5682 23.1883 93.9978 23.6393 95.4448 23.5454C96.3005 23.5388 97.1523 23.4291 97.9818 23.2186V20.1397C97.0358 20.2085 96.451 20.2429 96.2618 20.2429C95.5849 20.3041 94.9069 20.1376 94.3353 19.7699Z" fill="black"/>
<path d="M105.602 15.1173L104.294 14.5669C103.898 14.439 103.524 14.2504 103.185 14.0079C103.088 13.9327 103.01 13.8361 102.956 13.7258C102.902 13.6154 102.875 13.4942 102.875 13.3715C102.875 12.735 103.357 12.4168 104.32 12.4168C105.459 12.4262 106.548 12.887 107.347 13.6983L109.205 11.4278C108.594 10.7525 107.842 10.2199 107.002 9.86768C106.163 9.51544 105.256 9.3522 104.346 9.38954C103.063 9.32853 101.798 9.70783 100.76 10.4646C100.307 10.8149 99.9463 11.269 99.7068 11.7885C99.4673 12.3079 99.3564 12.8775 99.3837 13.4489C99.3636 13.8951 99.434 14.3407 99.5907 14.759C99.7474 15.1772 99.987 15.5595 100.295 15.8827C101.095 16.6339 102.037 17.2186 103.065 17.6028L104.509 18.2048C104.885 18.3549 105.246 18.5422 105.584 18.7638C105.689 18.84 105.774 18.9414 105.829 19.0586C105.885 19.1758 105.91 19.3051 105.903 19.4346C105.911 19.6098 105.87 19.7838 105.783 19.9362C105.696 20.0885 105.568 20.2129 105.412 20.2947C105.035 20.4958 104.61 20.5936 104.183 20.5785C103.454 20.5458 102.74 20.3615 102.087 20.0371C101.434 19.7128 100.856 19.2557 100.39 18.695L98.5322 20.9397C99.1863 21.7915 100.038 22.4714 101.013 22.9209C101.988 23.3704 103.059 23.5759 104.131 23.5197C105.482 23.5733 106.812 23.1704 107.906 22.3759C108.391 22.007 108.779 21.5266 109.038 20.9756C109.297 20.4247 109.419 19.8193 109.394 19.211C109.413 18.7676 109.341 18.3251 109.185 17.9099C109.028 17.4946 108.789 17.1153 108.483 16.7944C107.64 16.054 106.662 15.4845 105.602 15.1173Z" fill="black"/>
<path d="M117.849 4.88306L109.799 23.2188H113.764L114.77 20.8709H122.106L123.112 23.2188H127.068L119.078 4.88306H117.849ZM116.086 17.835L118.459 11.8149L120.833 17.835H116.086Z" fill="black"/>
<path d="M137.965 11.0235C137.449 10.4773 136.82 10.0504 136.122 9.77259C135.423 9.49481 134.673 9.37285 133.923 9.41526C133.04 9.38821 132.162 9.55342 131.35 9.89944C130.538 10.2455 129.81 10.764 129.218 11.4191C127.973 12.8025 127.313 14.6156 127.378 16.4761C127.312 18.3392 127.972 20.1551 129.218 21.5416C129.811 22.1954 130.539 22.713 131.351 23.0589C132.163 23.4048 133.04 23.5708 133.923 23.5455C134.75 23.5881 135.576 23.426 136.326 23.0735C137.076 22.721 137.728 22.1889 138.223 21.5244V23.2444H141.603V2.75867H137.922L137.965 11.0235ZM137.01 19.2453C136.361 19.862 135.497 20.2014 134.602 20.1914C134.138 20.2031 133.677 20.1182 133.248 19.942C132.818 19.7658 132.43 19.5022 132.108 19.1679C131.77 18.8039 131.507 18.3761 131.336 17.9095C131.164 17.4429 131.088 16.9468 131.111 16.4503C131.088 15.9575 131.167 15.4654 131.342 15.0041C131.516 14.5427 131.783 14.1218 132.125 13.767C132.444 13.4336 132.829 13.1704 133.256 12.9942C133.682 12.818 134.141 12.7326 134.602 12.7436C135.047 12.7372 135.489 12.819 135.903 12.9843C136.316 13.1497 136.692 13.3952 137.01 13.7068C137.36 14.0739 137.63 14.5095 137.803 14.9861C137.976 15.4627 138.049 15.97 138.016 16.4761C138.053 16.9825 137.983 17.491 137.809 17.9682C137.636 18.4455 137.364 18.8807 137.01 19.2453Z" fill="black"/>
<path d="M154.228 11.0235C153.712 10.4773 153.083 10.0504 152.385 9.77259C151.686 9.49481 150.936 9.37285 150.186 9.41526C149.303 9.38821 148.425 9.55342 147.613 9.89944C146.801 10.2455 146.073 10.764 145.481 11.4191C144.223 12.7971 143.551 14.6108 143.607 16.4761C143.541 18.3392 144.201 20.1551 145.447 21.5416C146.04 22.1954 146.768 22.713 147.58 23.0589C148.392 23.4048 149.269 23.5708 150.151 23.5455C150.979 23.5881 151.804 23.426 152.554 23.0735C153.305 22.721 153.956 22.1889 154.451 21.5244V23.2444H157.831V2.75867H154.15L154.228 11.0235ZM153.273 19.2453C152.624 19.862 151.76 20.2014 150.865 20.1914C150.401 20.2031 149.94 20.1182 149.51 19.942C149.081 19.7658 148.693 19.5022 148.371 19.1679C148.033 18.8039 147.77 18.3761 147.599 17.9095C147.427 17.4429 147.351 16.9468 147.373 16.4503C147.351 15.9575 147.43 15.4654 147.604 15.0041C147.779 14.5427 148.046 14.1218 148.388 13.767C148.707 13.4336 149.092 13.1704 149.519 12.9942C149.945 12.818 150.404 12.7326 150.865 12.7436C151.31 12.7372 151.752 12.819 152.165 12.9843C152.579 13.1497 152.955 13.3952 153.273 13.7068C153.623 14.0739 153.893 14.5095 154.066 14.9861C154.239 15.4627 154.312 15.97 154.279 16.4761C154.316 16.9825 154.246 17.491 154.072 17.9682C153.899 18.4455 153.627 18.8807 153.273 19.2453Z" fill="black"/>
<path d="M170.422 10.9033C169.266 9.86847 167.748 9.33351 166.199 9.41542C165.07 9.39811 163.952 9.63946 162.931 10.121C161.91 10.6025 161.013 11.3114 160.308 12.1933L162.217 14.4638C162.654 13.9254 163.198 13.4826 163.813 13.163C164.428 12.8434 165.103 12.6539 165.795 12.6061C166.476 12.5604 167.147 12.7862 167.661 13.2339C167.88 13.4617 168.05 13.7317 168.161 14.0275C168.272 14.3232 168.321 14.6385 168.306 14.954V15.556H164.918C163.594 15.4826 162.284 15.8517 161.194 16.6052C160.749 16.9385 160.391 17.3747 160.151 17.8765C159.912 18.3782 159.797 18.9306 159.818 19.4863C159.802 20.0319 159.906 20.5743 160.123 21.0752C160.34 21.576 160.665 22.023 161.073 22.3846C162.032 23.1899 163.264 23.5963 164.514 23.5198C165.276 23.5526 166.038 23.4241 166.748 23.1425C167.458 22.8609 168.1 22.4327 168.633 21.8858V23.193H171.987V15.1948C172.04 14.4099 171.928 13.6226 171.658 12.8835C171.389 12.1444 170.968 11.4699 170.422 10.9033ZM168.306 18.1705C168.313 18.535 168.239 18.8965 168.091 19.2295C167.942 19.5624 167.722 19.8585 167.446 20.0969C166.898 20.5986 166.176 20.8671 165.434 20.8451C164.933 20.8702 164.438 20.7313 164.023 20.4495C163.853 20.328 163.715 20.1663 163.622 19.9788C163.529 19.7913 163.484 19.5837 163.49 19.3745C163.49 18.4629 164.118 18.0071 165.374 18.0071H168.272L168.306 18.1705Z" fill="black"/>
<defs>
<linearGradient id="paint0_linear" x1="-0.000488281" y1="7.21372" x2="13.8459" y2="7.21372" gradientUnits="userSpaceOnUse">
<stop stop-color="#999999"/>
<stop offset="1"/>
</linearGradient>
</defs>
</svg>
