<svg width="120" height="21" viewBox="0 0 120 21" fill="none" xmlns="http://www.w3.org/2000/svg">
<path fill-rule="evenodd" clip-rule="evenodd" d="M0 20.0148V0.370292H9.19763V7.0776H20.8516V0.370292H30.0758V20.0154H20.8516V12.8063H9.19695V20.0154L0 20.0148ZM41.3699 20.0148H30.4255L38.9136 9.77001L30.8351 0.369614H42.2157L46.8006 6.17899L51.4134 0.369614H62.03L54.3059 9.74356L62.685 20.0154H51.5224L46.4189 13.8629L41.3699 20.0148ZM74.9456 20.4108H73.6901C61.3539 20.4108 59.8531 14.2054 59.8531 10.5092V9.87513C59.8531 6.28411 61.3539 0 73.7719 0H75.0001C85.8355 0 87.9095 3.80194 87.9095 6.33701V6.44281H78.6573C78.4665 6.17832 77.8388 5.04302 74.6729 5.04302C70.2789 5.04302 69.2961 7.42008 69.2961 8.92499V9.10945C69.8148 8.73984 71.916 7.28784 77.7025 7.28784H78.0296C86.4632 7.28784 88.8371 9.74289 88.8371 13.1237V13.361C88.8371 16.4766 87.2545 20.4108 74.9456 20.4108ZM69.8966 13.4933V13.5455C69.8966 14.4434 70.7151 15.3413 74.6457 15.3413C78.5755 15.3413 79.3123 14.4963 79.3123 13.5719V13.519C79.3123 12.6483 78.5755 11.7761 74.6457 11.7761C70.7151 11.7761 69.8966 12.6225 69.8966 13.4933ZM89.9235 0.369614H100.268L110.83 10.2983V0.368936H120V20.0141H110.693L99.0939 9.26747V20.0141H89.9235V0.369614Z" fill="black"/>
</svg>
