<svg width="140" height="44" viewBox="0 0 140 44" fill="none" xmlns="http://www.w3.org/2000/svg">
<path fill-rule="evenodd" clip-rule="evenodd" d="M89.1007 0.92589C87.729 1.51133 86.0177 2.58078 85.2974 3.3018C84.2033 4.39857 84.0424 4.89152 84.317 6.31044C85.031 10.0028 86.79 10.1815 88.4202 6.72613C89.6509 4.11794 91.2237 2.95232 93.9106 2.6575C97.6706 2.24444 100.529 5.41967 99.2113 8.54603C98.563 10.0853 96.0734 11.5421 94.4651 11.3229L93.2685 11.16L94.208 9.17667C95.0362 7.42824 95.0625 7.10136 94.4301 6.41765C94.0355 5.99092 93.0779 5.64197 92.3017 5.64197C90.3265 5.64197 89.4773 7.67786 88.6025 14.5134C87.7772 20.9632 86.4323 23.955 85.2716 21.9249C85.1034 21.6311 84.736 21.5444 84.4541 21.7331C84.1046 21.9664 83.9996 20.5181 84.1231 17.1684L84.3044 12.2615L82.6188 11.8852C79.6646 11.2252 79.2554 11.86 79.0974 17.3428C78.9598 22.1288 78.9409 22.1961 77.7428 22.1961H76.5277L76.6827 17.1221L76.8383 12.0476L75.3573 11.696C72.4741 11.0113 72.058 11.5331 71.6838 16.3002C71.3844 20.1134 71.1977 20.7377 70.092 21.6269C68.6703 22.77 66.3344 22.9507 65.4541 21.9859C64.988 21.4751 65.1489 21.1103 66.2129 20.2669C69.0941 17.9829 69.8081 14.2937 67.7133 12.5122C63.2903 8.74994 57.2672 15.689 59.9983 21.3999C60.6744 22.8136 60.6584 22.9387 59.7597 23.2471C58.1679 23.7932 57.815 23.0932 57.815 19.3913C57.815 15.494 57.083 13.7971 55.0387 12.9568C54.1682 12.5994 53.427 12.6662 52.4544 13.1912C51.5922 13.6557 50.9205 13.743 50.6284 13.4271C50.3742 13.1523 49.3175 13.003 48.2798 13.095C46.6423 13.24 46.3731 13.4482 46.2428 14.669C46.0722 16.2624 44.6918 17.9162 44.6918 16.5262C44.6918 15.1498 41.8645 12.9994 40.054 12.9994C36.764 12.9994 33.5512 17.6965 34.1432 21.6411C34.2832 22.5739 34.221 23.6471 34.0042 24.026C33.0467 25.7008 32.1718 23.8447 30.5018 16.5961C28.2295 6.73297 27.5996 5.11644 26.0268 5.11644C25.3575 5.11644 24.3072 5.36397 23.6933 5.6672C22.6216 6.19535 22.5749 6.47546 22.5282 12.6304C22.5015 16.1572 22.2527 19.6341 21.9756 20.3567C21.4866 21.6306 21.4604 21.6064 21.1075 19.5684C20.5748 16.491 18.4688 10.3307 17.3796 8.66375C16.7458 7.69416 16.006 7.22118 15.1316 7.22644C12.5736 7.2422 12.4273 7.65159 12.3748 14.9333C12.3135 23.4374 11.2856 28.0631 8.8777 30.6665C6.78869 32.9252 4.96748 33.0719 4.74682 30.9987C4.53977 29.0526 2.59267 28.6569 1.98075 30.4363C0.459915 34.8608 6.25696 36.1131 10.0048 32.1695C11.8061 30.2745 14.0225 22.5224 14.1051 17.8263L14.1396 15.8898L14.8254 17.9115C15.2026 19.0235 16.0959 22.2865 16.8109 25.1627C18.2588 30.9892 18.9966 31.9189 21.2495 30.7548C21.9795 30.3775 22.6162 29.5981 22.6643 29.0232C23.3676 20.5937 24.0116 15.0163 24.3042 14.8214C24.5035 14.6879 25.027 16.4111 25.4669 18.6503C26.5916 24.3786 27.5943 27.1035 28.9236 28.0452C30.4945 29.1583 32.7332 28.5476 34.1228 26.6284L35.231 25.0975L37.284 26.1959C39.0173 27.1229 39.5816 27.2023 40.9002 26.7051C41.7595 26.3814 42.9669 25.6046 43.5827 24.9787C44.7171 23.8263 45.9239 20.1859 45.4481 19.353C45.3052 19.1034 45.4957 18.6235 45.871 18.2872C46.4411 17.7753 46.6054 18.2615 46.8722 21.2491C47.3087 26.1402 47.3072 26.1375 49.5192 26.1375H51.4614L51.6004 21.0136C51.7127 16.8762 51.8799 15.8898 52.4685 15.8898C53.0226 15.8898 53.2754 16.832 53.5218 19.817C53.7818 22.9691 54.0564 23.9293 54.9123 24.6781C56.2218 25.8248 58.3623 25.8763 60.2739 24.808C61.3306 24.2167 61.9605 24.1474 62.6477 24.5452C64.4014 25.5595 67.7541 25.1832 69.7036 23.7532L71.5205 22.42L72.8041 23.8079C73.9308 25.0255 74.391 25.1685 76.5602 24.974C78.8869 24.7654 79.0206 24.82 78.8291 25.9005C78.6556 26.8843 78.2011 27.0971 75.6596 27.3841C69.9296 28.0315 67.0479 30.6324 67.0518 35.1524C67.0571 42.1472 74.8353 45.0313 79.8517 39.899C81.7765 37.9298 82.5337 36.1572 82.9041 32.7518C83.0796 31.1374 83.3036 29.8162 83.4023 29.8162C83.5009 29.8162 85.8092 30.1778 88.532 30.6203C96.7976 31.9625 103.519 33.816 114.081 37.6644C128.195 42.8083 132.037 43.3438 136.632 40.8092C139.665 39.1365 140.789 36.1604 139.429 33.4108C138.904 32.3498 138.896 32.3498 137.849 33.3798C136.313 34.8907 134.858 35.597 133.282 35.597C132.005 35.597 122.597 33.5911 118.57 32.4602C116.288 31.819 109.995 30.4458 105.116 29.5235C101.354 28.813 87.1613 27.1886 84.7122 27.1886C83.6886 27.1886 83.5753 26.9526 83.5753 24.8237C83.5753 22.1914 84.0657 21.8177 85.0116 23.7285C85.3572 24.4264 86.0736 25.1206 86.6039 25.2704C87.6872 25.5768 89.6358 24.9125 90.1155 24.0727C90.3167 23.7206 90.9462 23.9308 91.8487 24.6529C93.7088 26.1396 97.8052 26.5301 100.199 25.4486C102.306 24.4968 103.5 22.7022 103.838 19.981C104.043 18.3303 103.799 17.5294 102.418 15.3111L100.752 12.6336L102.128 10.9687C104.68 7.87967 103.549 3.12312 99.7936 1.15817C97.0266 -0.289655 92.1934 -0.39476 89.1007 0.92589ZM124.536 7.44138C123.732 8.17239 122.593 9.97915 122.006 11.4554C120.662 14.8324 119.458 21.4614 119.626 24.561L119.753 26.9258H118.068C116.542 26.9258 116.37 26.7734 116.237 25.3051C116.157 24.4138 116.546 22.4362 117.102 20.9106C118.355 17.4747 117.859 16.4316 115.161 16.8226C114.097 16.9771 113.054 16.7926 112.496 16.3517C111.992 15.9528 110.66 15.627 109.536 15.627C107.805 15.627 107.261 15.9113 105.984 17.4847C104.698 19.0681 104.475 19.7576 104.475 22.1598C104.475 24.7275 104.628 25.1222 106.193 26.6084C107.955 28.2817 110.678 28.8025 112.202 27.7583C112.657 27.4471 113.211 27.6243 113.874 28.2917C114.954 29.38 117.582 29.6181 119.063 28.7615C119.787 28.3426 120.232 28.5071 121.196 29.5498C122.636 31.1064 125.254 31.3077 127.989 30.0722C129.404 29.4326 129.749 29.4131 129.749 29.9728C129.749 30.3559 130.196 31.1868 130.741 31.819C131.934 33.2043 134.833 33.373 136.446 32.1511C137.884 31.0623 137.809 30.5588 136.212 30.584C133.737 30.6229 132.74 25.8243 134.626 22.9597C136.158 20.6326 137.893 16.0558 138.269 13.3488C138.654 10.5688 137.683 8.26961 136.122 8.26961C134.731 8.26961 132.879 10.1268 131.81 12.5936C130.708 15.1346 129.341 21.5518 129.149 25.0765C129.037 27.1297 128.845 27.4981 127.655 27.948C126.599 28.3474 126.188 28.2901 125.84 27.6952C125.134 26.4886 125.279 21.6227 126.041 20.939C127.154 19.94 129.291 14.2343 129.55 11.5683C130.014 6.79445 127.511 4.73439 124.536 7.44138ZM127.318 15.2712C126.123 18.869 125.09 20.557 125.652 17.9919C126.305 15.0116 127.967 10.635 128.181 11.3298C128.299 11.7118 127.911 13.4855 127.318 15.2712ZM136.526 15.4604C135.592 18.5258 134.575 21.02 134.356 20.7829C134.153 20.5627 135.078 17.0244 136.035 14.3715C136.829 12.1659 137.247 13.0924 136.526 15.4604ZM98.0716 15.297C98.7268 16.0048 99.3129 17.4169 99.467 18.6598C99.692 20.4755 99.5418 21.0089 98.4808 22.1561C96.9517 23.8094 95.3206 23.8804 93.546 22.3706C92.2546 21.2722 92.2181 21.1082 92.5331 17.7869C92.7124 15.8924 93.1217 14.1518 93.4425 13.9196C94.3791 13.2395 96.8472 13.9742 98.0716 15.297ZM67.0498 15.7915C67.0498 17.2598 64.4101 20.2143 63.8983 19.3188C63.4983 18.6199 63.9868 16.1888 64.7183 15.236C65.5961 14.0919 67.0498 14.4382 67.0498 15.7915ZM42.9907 17.2036C43.1559 17.4926 42.9498 17.7291 42.5333 17.7291C42.1168 17.7291 41.7756 17.4926 41.7756 17.2036C41.7756 16.9145 41.9812 16.678 42.2329 16.678C42.4847 16.678 42.8254 16.9145 42.9907 17.2036ZM40.8035 18.5174C41.1364 18.9509 41.9287 19.3057 42.5639 19.3057C43.5243 19.3057 43.7197 19.5726 43.7197 20.8823C43.7197 22.5135 42.2738 24.561 41.1218 24.561C39.4707 24.561 38.381 21.7772 39.0129 19.1743C39.408 17.5478 39.916 17.3612 40.8035 18.5174ZM112.552 20.8287C112.393 21.8697 112.26 23.3559 112.257 24.1316C112.249 26.1275 110.449 26.7035 109.244 25.0949C107.694 23.0243 108.344 19.6704 110.461 18.8196C112.244 18.1027 112.876 18.7097 112.552 20.8287ZM47.3651 28.833C42.2567 29.3595 28.3977 31.8978 20.3896 33.7729C8.74307 36.5004 4.5315 37.264 2.49109 37.0202C0.0657342 36.7295 -0.305603 37.2262 0.191619 40.0929C0.421518 41.4162 0.96297 42.2491 2.06775 42.9775C4.77598 44.7627 7.4152 44.3507 17.1477 40.6216C34.6477 33.9164 48.3547 30.8673 61 30.8673C65.4595 30.8673 67.5879 30.1315 66.8525 28.8451C66.4447 28.1314 54.2406 28.1235 47.3651 28.833ZM78.4495 31.787C77.4862 37.9199 76.6103 39.2757 73.6114 39.2757C69.3386 39.2757 68.0603 33.8496 71.6026 30.7475C72.3356 30.1058 73.5366 29.8362 75.699 29.8278L78.7591 29.8162L78.4495 31.787Z" fill="black"/>
</svg>
