<svg width="212" height="15" viewBox="0 0 212 15" fill="none" xmlns="http://www.w3.org/2000/svg">
<path d="M0.962538 14H3.41054V8.654H9.20654V14H11.6545V1.04H9.20654V6.368H3.41054V1.04H0.962538V14ZM17.7813 14H26.2413V11.714H20.2293V8.384H25.1613V6.098H20.2293V3.326H26.2413V1.04H17.7813V14ZM30.9185 14H33.9425L36.8045 9.536L39.6485 14H42.6545L38.3165 7.448L42.5465 1.04H39.5225L36.8045 5.36L34.0505 1.04H31.0445L35.2745 7.448L30.9185 14ZM46.7922 14H49.3122L50.1312 11.3H55.0092L55.8462 14H58.3662L54.4062 1.04H50.7522L46.7922 14ZM50.8242 9.014L52.5522 3.335L54.3072 9.014H50.8242ZM68.6278 14.27C69.8758 14.27 70.9588 14 71.8768 13.46C72.7948 12.914 73.5058 12.161 74.0098 11.201C74.5138 10.241 74.7658 9.14 74.7658 7.898C74.7658 7.868 74.7628 7.754 74.7568 7.556C74.7508 7.358 74.7418 7.22 74.7298 7.142H70.0678V9.032H72.1198C71.9218 10.058 71.5258 10.808 70.9318 11.282C70.3438 11.756 69.6298 11.984 68.7898 11.966C67.5598 11.948 66.6358 11.54 66.0178 10.742C65.4058 9.944 65.0998 8.87 65.0998 7.52C65.0998 6.17 65.4058 5.087 66.0178 4.271C66.6358 3.455 67.5598 3.056 68.7898 3.074C69.6178 3.08 70.2958 3.311 70.8238 3.767C71.3578 4.217 71.7418 4.82 71.9758 5.576L74.4778 5.216C74.1538 3.8 73.5148 2.705 72.5608 1.931C71.6068 1.157 70.2958 0.77 68.6278 0.77C67.4998 0.77 66.4708 1.034 65.5408 1.562C64.6168 2.09 63.8788 2.858 63.3268 3.866C62.7808 4.868 62.5078 6.086 62.5078 7.52C62.5078 8.618 62.6698 9.587 62.9938 10.427C63.3238 11.267 63.7708 11.972 64.3348 12.542C64.9048 13.112 65.5588 13.544 66.2968 13.838C67.0348 14.126 67.8118 14.27 68.6278 14.27ZM85.7316 14.27C87.0276 14.27 88.1436 13.988 89.0796 13.424C90.0216 12.86 90.7446 12.071 91.2486 11.057C91.7586 10.043 92.0136 8.864 92.0136 7.52C92.0136 6.176 91.7586 4.997 91.2486 3.983C90.7446 2.969 90.0216 2.18 89.0796 1.616C88.1436 1.052 87.0276 0.77 85.7316 0.77C84.4356 0.77 83.3166 1.052 82.3746 1.616C81.4386 2.18 80.7156 2.969 80.2056 3.983C79.7016 4.997 79.4496 6.176 79.4496 7.52C79.4496 8.864 79.7016 10.043 80.2056 11.057C80.7156 12.071 81.4386 12.86 82.3746 13.424C83.3166 13.988 84.4356 14.27 85.7316 14.27ZM85.7316 11.966C84.5016 11.948 83.5776 11.54 82.9596 10.742C82.3476 9.944 82.0416 8.87 82.0416 7.52C82.0416 6.17 82.3476 5.087 82.9596 4.271C83.5776 3.455 84.5016 3.056 85.7316 3.074C86.9676 3.092 87.8916 3.5 88.5036 4.298C89.1156 5.096 89.4216 6.17 89.4216 7.52C89.4216 8.87 89.1156 9.953 88.5036 10.769C87.8916 11.585 86.9676 11.984 85.7316 11.966ZM97.4102 14H99.8942V5.36L105.528 14H108.012V1.04H105.528V9.68L99.8942 1.04H97.4102V14ZM120.427 14H122.947L123.766 11.3H128.644L129.481 14H132.001L128.041 1.04H124.387L120.427 14ZM124.459 9.014L126.187 3.335L127.942 9.014H124.459ZM142.263 14.27C143.511 14.27 144.594 14 145.512 13.46C146.43 12.914 147.141 12.161 147.645 11.201C148.149 10.241 148.401 9.14 148.401 7.898C148.401 7.868 148.398 7.754 148.392 7.556C148.386 7.358 148.377 7.22 148.365 7.142H143.703V9.032H145.755C145.557 10.058 145.161 10.808 144.567 11.282C143.979 11.756 143.265 11.984 142.425 11.966C141.195 11.948 140.271 11.54 139.653 10.742C139.041 9.944 138.735 8.87 138.735 7.52C138.735 6.17 139.041 5.087 139.653 4.271C140.271 3.455 141.195 3.056 142.425 3.074C143.253 3.08 143.931 3.311 144.459 3.767C144.993 4.217 145.377 4.82 145.611 5.576L148.113 5.216C147.789 3.8 147.15 2.705 146.196 1.931C145.242 1.157 143.931 0.77 142.263 0.77C141.135 0.77 140.106 1.034 139.176 1.562C138.252 2.09 137.514 2.858 136.962 3.866C136.416 4.868 136.143 6.086 136.143 7.52C136.143 8.618 136.305 9.587 136.629 10.427C136.959 11.267 137.406 11.972 137.97 12.542C138.54 13.112 139.194 13.544 139.932 13.838C140.67 14.126 141.447 14.27 142.263 14.27ZM153.804 14H162.264V11.714H156.252V8.384H161.184V6.098H156.252V3.326H162.264V1.04H153.804V14ZM168.022 14H170.506V5.36L176.14 14H178.624V1.04H176.14V9.68L170.506 1.04H168.022V14ZM190.297 14.27C191.785 14.27 193.033 13.901 194.041 13.163C195.055 12.425 195.769 11.426 196.183 10.166L193.717 9.482C193.477 10.262 193.072 10.871 192.502 11.309C191.932 11.747 191.197 11.966 190.297 11.966C189.067 11.966 188.14 11.564 187.516 10.76C186.898 9.95 186.589 8.87 186.589 7.52C186.589 6.17 186.898 5.093 187.516 4.289C188.14 3.479 189.067 3.074 190.297 3.074C191.197 3.074 191.932 3.293 192.502 3.731C193.072 4.163 193.477 4.772 193.717 5.558L196.183 4.874C195.769 3.614 195.055 2.615 194.041 1.877C193.033 1.139 191.785 0.77 190.297 0.77C189.001 0.77 187.882 1.052 186.94 1.616C186.004 2.18 185.281 2.969 184.771 3.983C184.267 4.997 184.015 6.176 184.015 7.52C184.015 8.864 184.267 10.043 184.771 11.057C185.281 12.071 186.004 12.86 186.94 13.424C187.882 13.988 189.001 14.27 190.297 14.27ZM204.388 14H206.872V8.726L211.3 1.04H208.438L205.63 5.918L202.822 1.04H199.96L204.388 8.726V14Z" fill="black"/>
</svg>
